<?xml version="1.0" encoding="UTF-8" standalone="no"?>
<!-- Created with Inkscape (http://www.inkscape.org/) -->

<svg
   xmlns:dc="http://purl.org/dc/elements/1.1/"
   xmlns:cc="http://creativecommons.org/ns#"
   xmlns:rdf="http://www.w3.org/1999/02/22-rdf-syntax-ns#"
   xmlns:svg="http://www.w3.org/2000/svg"
   xmlns="http://www.w3.org/2000/svg"
   xmlns:sodipodi="http://sodipodi.sourceforge.net/DTD/sodipodi-0.dtd"
   xmlns:inkscape="http://www.inkscape.org/namespaces/inkscape"
   version="1.1"
   id="svg618"
   xml:space="preserve"
   width="816"
   height="1056"
   viewBox="0 0 816 1056"
   sodipodi:docname="CurrentVsRPM.svg"
   inkscape:version="0.92.2 5c3e80d, 2017-08-06"><metadata
     id="metadata624"><rdf:RDF><cc:Work
         rdf:about=""><dc:format>image/svg+xml</dc:format><dc:type
           rdf:resource="http://purl.org/dc/dcmitype/StillImage" /><dc:title></dc:title></cc:Work></rdf:RDF></metadata><defs
     id="defs622"><clipPath
       clipPathUnits="userSpaceOnUse"
       id="clipPath636"><path
         d="M 18,40 H 594 V 774 H 18 Z"
         id="path634"
         inkscape:connector-curvature="0" /></clipPath><clipPath
       clipPathUnits="userSpaceOnUse"
       id="clipPath650"><path
         d="M 18,394.08 H 594 V 720 H 18 Z"
         id="path648"
         inkscape:connector-curvature="0" /></clipPath><clipPath
       clipPathUnits="userSpaceOnUse"
       id="clipPath660"><path
         d="M 72,394.8 H 540 V 720 H 72 Z"
         id="path658"
         inkscape:connector-curvature="0" /></clipPath><clipPath
       clipPathUnits="userSpaceOnUse"
       id="clipPath670"><path
         d="M 72,394.8 H 540 V 720 H 72 Z"
         id="path668"
         inkscape:connector-curvature="0" /></clipPath><clipPath
       clipPathUnits="userSpaceOnUse"
       id="clipPath682"><path
         d="M 72,394.8 H 540 V 720 H 72 Z"
         id="path680"
         inkscape:connector-curvature="0" /></clipPath><clipPath
       clipPathUnits="userSpaceOnUse"
       id="clipPath694"><path
         d="M 72,394.8 H 540 V 720 H 72 Z"
         id="path692"
         inkscape:connector-curvature="0" /></clipPath><clipPath
       clipPathUnits="userSpaceOnUse"
       id="clipPath876"><path
         d="M 72,394.8 H 540 V 720 H 72 Z"
         id="path874"
         inkscape:connector-curvature="0" /></clipPath><clipPath
       clipPathUnits="userSpaceOnUse"
       id="clipPath890"><path
         d="M 72,394.8 H 540 V 720 H 72 Z"
         id="path888"
         inkscape:connector-curvature="0" /></clipPath><clipPath
       clipPathUnits="userSpaceOnUse"
       id="clipPath904"><path
         d="M 72,394.8 H 540 V 720 H 72 Z"
         id="path902"
         inkscape:connector-curvature="0" /></clipPath><clipPath
       clipPathUnits="userSpaceOnUse"
       id="clipPath918"><path
         d="M 72,394.8 H 540 V 720 H 72 Z"
         id="path916"
         inkscape:connector-curvature="0" /></clipPath><clipPath
       clipPathUnits="userSpaceOnUse"
       id="clipPath932"><path
         d="M 72,394.8 H 540 V 720 H 72 Z"
         id="path930"
         inkscape:connector-curvature="0" /></clipPath><clipPath
       clipPathUnits="userSpaceOnUse"
       id="clipPath946"><path
         d="M 72,394.8 H 540 V 720 H 72 Z"
         id="path944"
         inkscape:connector-curvature="0" /></clipPath><clipPath
       clipPathUnits="userSpaceOnUse"
       id="clipPath960"><path
         d="M 72,394.8 H 540 V 720 H 72 Z"
         id="path958"
         inkscape:connector-curvature="0" /></clipPath><clipPath
       clipPathUnits="userSpaceOnUse"
       id="clipPath974"><path
         d="M 72,394.8 H 540 V 720 H 72 Z"
         id="path972"
         inkscape:connector-curvature="0" /></clipPath><clipPath
       clipPathUnits="userSpaceOnUse"
       id="clipPath988"><path
         d="M 72,394.8 H 540 V 720 H 72 Z"
         id="path986"
         inkscape:connector-curvature="0" /></clipPath><clipPath
       clipPathUnits="userSpaceOnUse"
       id="clipPath1002"><path
         d="M 72,394.8 H 540 V 720 H 72 Z"
         id="path1000"
         inkscape:connector-curvature="0" /></clipPath><clipPath
       clipPathUnits="userSpaceOnUse"
       id="clipPath1016"><path
         d="M 72,394.8 H 540 V 720 H 72 Z"
         id="path1014"
         inkscape:connector-curvature="0" /></clipPath><clipPath
       clipPathUnits="userSpaceOnUse"
       id="clipPath1030"><path
         d="M 72,394.8 H 540 V 720 H 72 Z"
         id="path1028"
         inkscape:connector-curvature="0" /></clipPath><clipPath
       clipPathUnits="userSpaceOnUse"
       id="clipPath1044"><path
         d="M 72,394.8 H 540 V 720 H 72 Z"
         id="path1042"
         inkscape:connector-curvature="0" /></clipPath><clipPath
       clipPathUnits="userSpaceOnUse"
       id="clipPath1058"><path
         d="M 72,394.8 H 540 V 720 H 72 Z"
         id="path1056"
         inkscape:connector-curvature="0" /></clipPath><clipPath
       clipPathUnits="userSpaceOnUse"
       id="clipPath1072"><path
         d="M 72,394.8 H 540 V 720 H 72 Z"
         id="path1070"
         inkscape:connector-curvature="0" /></clipPath><clipPath
       clipPathUnits="userSpaceOnUse"
       id="clipPath1086"><path
         d="M 72,394.8 H 540 V 720 H 72 Z"
         id="path1084"
         inkscape:connector-curvature="0" /></clipPath><clipPath
       clipPathUnits="userSpaceOnUse"
       id="clipPath1100"><path
         d="M 72,394.8 H 540 V 720 H 72 Z"
         id="path1098"
         inkscape:connector-curvature="0" /></clipPath><clipPath
       clipPathUnits="userSpaceOnUse"
       id="clipPath1114"><path
         d="M 72,394.8 H 540 V 720 H 72 Z"
         id="path1112"
         inkscape:connector-curvature="0" /></clipPath><clipPath
       clipPathUnits="userSpaceOnUse"
       id="clipPath1128"><path
         d="M 72,394.8 H 540 V 720 H 72 Z"
         id="path1126"
         inkscape:connector-curvature="0" /></clipPath><clipPath
       clipPathUnits="userSpaceOnUse"
       id="clipPath1142"><path
         d="M 18,394.08 H 594 V 720 H 18 Z"
         id="path1140"
         inkscape:connector-curvature="0" /></clipPath></defs><sodipodi:namedview
     pagecolor="#ffffff"
     bordercolor="#666666"
     borderopacity="1"
     objecttolerance="10"
     gridtolerance="10"
     guidetolerance="10"
     inkscape:pageopacity="0"
     inkscape:pageshadow="2"
     inkscape:window-width="1039"
     inkscape:window-height="951"
     id="namedview620"
     showgrid="false"
     inkscape:zoom="3.5757576"
     inkscape:cx="392.17998"
     inkscape:cy="819.77885"
     inkscape:window-x="499"
     inkscape:window-y="0"
     inkscape:window-maximized="0"
     inkscape:current-layer="g626" /><g
     id="g626"
     inkscape:groupmode="layer"
     inkscape:label="CurrentVsRPM"
     transform="matrix(1.3333333,0,0,-1.3333333,0,1056)"><g
       id="g628" /><g
       id="g630"><g
         id="g632"
         clip-path="url(#clipPath636)"><g
           id="g638"
           transform="matrix(0.24,0,0,0.24,540,394.08)"><text
             transform="scale(1,-1)"
             style="font-variant:normal;font-weight:normal;font-size:50px;font-family:Calibri;-inkscape-font-specification:Calibri;writing-mode:lr-tb;fill:#000000;fill-opacity:1;fill-rule:nonzero;stroke:none"
             id="text642"><tspan
               x="0"
               y="0"
               id="tspan640">	</tspan></text>
</g></g></g><g
       id="g644"><g
         id="g646"
         clip-path="url(#clipPath650)"><path
           d="M 72,709.9992 C 72,715.5225 76.4775,720 82.00079,720 H 529.9992 C 535.5225,720 540,715.5225 540,709.9992 V 404.5608 C 540,399.0375 535.5225,394.56 529.9992,394.56 H 82.00079 C 76.4775,394.56 72,399.0375 72,404.5608 Z"
           style="fill:#ffffff;fill-opacity:1;fill-rule:nonzero;stroke:none"
           id="path652"
           inkscape:connector-curvature="0" /></g></g><g
       id="g654"><g
         id="g656"
         clip-path="url(#clipPath660)"><path
           d="m 136.8,443.52 h 383.76 v 230.4 H 136.8 Z"
           style="fill:#ffffff;fill-opacity:1;fill-rule:nonzero;stroke:none"
           id="path662"
           inkscape:connector-curvature="0" /></g></g><g
       id="g664"><g
         id="g666"
         clip-path="url(#clipPath670)"><g
           id="g672"
           transform="matrix(7.874016e-5,0,0,-7.874016e-5,136.8,673.92)"><path
             d="M 0,2926080 H 4873752 M 0,2508504 H 4873752 M 0,2090928 H 4873752 M 0,1673352 H 4873752 M 0,1252728 H 4873752 M 0,835152 H 4873752 M 0,417576 H 4873752 M 0,0 h 4873752"
             style="fill:none;stroke:#b7b7b7;stroke-width:6096;stroke-linecap:butt;stroke-linejoin:round;stroke-miterlimit:10;stroke-dasharray:none;stroke-opacity:1"
             id="path674"
             inkscape:connector-curvature="0" /></g></g></g><g
       id="g676"><g
         id="g678"
         clip-path="url(#clipPath682)"><g
           id="g684"
           transform="matrix(7.874016e-5,0,0,-7.874016e-5,136.8,673.92)"><path
             d="M 0,0 V 2926080 M 697992,0 V 2926080 M 1392936,0 V 2926080 M 2090928,0 V 2926080 M 2785872,0 V 2926080 M 3480816,0 V 2926080 M 4178808,0 V 2926080 M 4873752,0 v 2926080"
             style="fill:none;stroke:#b7b7b7;stroke-width:6096;stroke-linecap:butt;stroke-linejoin:round;stroke-miterlimit:10;stroke-dasharray:none;stroke-opacity:1"
             id="path686"
             inkscape:connector-curvature="0" /></g></g></g><g
       id="g688"><g
         id="g690"
         clip-path="url(#clipPath694)"><path
           d="m 331.68,567.48 c 0,-1.9219 -1.5581,-3.48 -3.48,-3.48 -1.922,0 -3.48,1.5581 -3.48,3.48 0,1.922 1.558,3.48 3.48,3.48 1.9219,0 3.48,-1.558 3.48,-3.48 z"
           style="fill:#3366cc;fill-opacity:1;fill-rule:nonzero;stroke:none"
           id="path696"
           inkscape:connector-curvature="0" /><g
           id="g698"
           transform="matrix(7.874016e-5,0,0,-7.874016e-5,324.72,570.96)"><path
             d="M 88392,44196 C 88392,68604.77 68604.77,88392 44196,88392 19787.22,88392 0,68604.77 0,44196 0,19787.22 19787.22,0 44196,0 68604.77,0 88392,19787.22 88392,44196 Z"
             style="fill:none;stroke:#3366cc;stroke-width:6096;stroke-linecap:butt;stroke-linejoin:round;stroke-miterlimit:10;stroke-dasharray:none;stroke-opacity:1"
             id="path700"
             inkscape:connector-curvature="0" /></g><path
           d="m 304.8,553.8 c 0,-1.9219 -1.5581,-3.48 -3.48,-3.48 -1.922,0 -3.48,1.5581 -3.48,3.48 0,1.922 1.558,3.48 3.48,3.48 1.9219,0 3.48,-1.558 3.48,-3.48 z"
           style="fill:#3366cc;fill-opacity:1;fill-rule:nonzero;stroke:none"
           id="path702"
           inkscape:connector-curvature="0" /><g
           id="g704"
           transform="matrix(7.874016e-5,0,0,-7.874016e-5,297.84,557.28)"><path
             d="M 88392,44196 C 88392,68604.77 68604.77,88392 44196,88392 19787.22,88392 0,68604.77 0,44196 0,19787.22 19787.22,0 44196,0 68604.77,0 88392,19787.22 88392,44196 Z"
             style="fill:none;stroke:#3366cc;stroke-width:6096;stroke-linecap:butt;stroke-linejoin:round;stroke-miterlimit:10;stroke-dasharray:none;stroke-opacity:1"
             id="path706"
             inkscape:connector-curvature="0" /></g><path
           d="m 288.24,563.88 c 0,-1.9219 -1.5581,-3.48 -3.48,-3.48 -1.922,0 -3.48,1.5581 -3.48,3.48 0,1.922 1.558,3.48 3.48,3.48 1.9219,0 3.48,-1.558 3.48,-3.48 z"
           style="fill:#3366cc;fill-opacity:1;fill-rule:nonzero;stroke:none"
           id="path708"
           inkscape:connector-curvature="0" /><g
           id="g710"
           transform="matrix(7.874016e-5,0,0,-7.874016e-5,281.28,567.36)"><path
             d="M 88392,44196 C 88392,68604.77 68604.77,88392 44196,88392 19787.22,88392 0,68604.77 0,44196 0,19787.22 19787.22,0 44196,0 68604.77,0 88392,19787.22 88392,44196 Z"
             style="fill:none;stroke:#3366cc;stroke-width:6096;stroke-linecap:butt;stroke-linejoin:round;stroke-miterlimit:10;stroke-dasharray:none;stroke-opacity:1"
             id="path712"
             inkscape:connector-curvature="0" /></g><path
           d="m 296.4,567.96 c 0,-1.9219 -1.5581,-3.48 -3.48,-3.48 -1.922,0 -3.48,1.5581 -3.48,3.48 0,1.922 1.558,3.48 3.48,3.48 1.9219,0 3.48,-1.558 3.48,-3.48 z"
           style="fill:#3366cc;fill-opacity:1;fill-rule:nonzero;stroke:none"
           id="path714"
           inkscape:connector-curvature="0" /><g
           id="g716"
           transform="matrix(7.874016e-5,0,0,-7.874016e-5,289.44,571.44)"><path
             d="M 88392,44196 C 88392,68604.77 68604.77,88392 44196,88392 19787.22,88392 0,68604.77 0,44196 0,19787.22 19787.22,0 44196,0 68604.77,0 88392,19787.22 88392,44196 Z"
             style="fill:none;stroke:#3366cc;stroke-width:6096;stroke-linecap:butt;stroke-linejoin:round;stroke-miterlimit:10;stroke-dasharray:none;stroke-opacity:1"
             id="path718"
             inkscape:connector-curvature="0" /></g><path
           d="m 325.44,591.96 c 0,-1.9219 -1.5581,-3.48 -3.48,-3.48 -1.922,0 -3.48,1.5581 -3.48,3.48 0,1.922 1.558,3.48 3.48,3.48 1.9219,0 3.48,-1.558 3.48,-3.48 z"
           style="fill:#3366cc;fill-opacity:1;fill-rule:nonzero;stroke:none"
           id="path720"
           inkscape:connector-curvature="0" /><g
           id="g722"
           transform="matrix(7.874016e-5,0,0,-7.874016e-5,318.48,595.44)"><path
             d="M 88392,44196 C 88392,68604.77 68604.77,88392 44196,88392 19787.22,88392 0,68604.77 0,44196 0,19787.22 19787.22,0 44196,0 68604.77,0 88392,19787.22 88392,44196 Z"
             style="fill:none;stroke:#3366cc;stroke-width:6096;stroke-linecap:butt;stroke-linejoin:round;stroke-miterlimit:10;stroke-dasharray:none;stroke-opacity:1"
             id="path724"
             inkscape:connector-curvature="0" /></g><path
           d="m 290.88,575.4 c 0,-1.9219 -1.5581,-3.48 -3.48,-3.48 -1.922,0 -3.48,1.5581 -3.48,3.48 0,1.922 1.558,3.48 3.48,3.48 1.9219,0 3.48,-1.558 3.48,-3.48 z"
           style="fill:#3366cc;fill-opacity:1;fill-rule:nonzero;stroke:none"
           id="path726"
           inkscape:connector-curvature="0" /><g
           id="g728"
           transform="matrix(7.874016e-5,0,0,-7.874016e-5,283.92,578.88)"><path
             d="M 88392,44196 C 88392,68604.77 68604.77,88392 44196,88392 19787.22,88392 0,68604.77 0,44196 0,19787.22 19787.22,0 44196,0 68604.77,0 88392,19787.22 88392,44196 Z"
             style="fill:none;stroke:#3366cc;stroke-width:6096;stroke-linecap:butt;stroke-linejoin:round;stroke-miterlimit:10;stroke-dasharray:none;stroke-opacity:1"
             id="path730"
             inkscape:connector-curvature="0" /></g><path
           d="m 276.72,560.52 c 0,-1.9219 -1.5581,-3.48 -3.48,-3.48 -1.922,0 -3.48,1.5581 -3.48,3.48 0,1.922 1.558,3.48 3.48,3.48 1.9219,0 3.48,-1.558 3.48,-3.48 z"
           style="fill:#3366cc;fill-opacity:1;fill-rule:nonzero;stroke:none"
           id="path732"
           inkscape:connector-curvature="0" /><g
           id="g734"
           transform="matrix(7.874016e-5,0,0,-7.874016e-5,269.76,564)"><path
             d="M 88392,44196 C 88392,68604.77 68604.77,88392 44196,88392 19787.22,88392 0,68604.77 0,44196 0,19787.22 19787.22,0 44196,0 68604.77,0 88392,19787.22 88392,44196 Z"
             style="fill:none;stroke:#3366cc;stroke-width:6096;stroke-linecap:butt;stroke-linejoin:round;stroke-miterlimit:10;stroke-dasharray:none;stroke-opacity:1"
             id="path736"
             inkscape:connector-curvature="0" /></g><path
           d="m 259.2,558.84 c 0,-1.9219 -1.5581,-3.48 -3.48,-3.48 -1.922,0 -3.48,1.5581 -3.48,3.48 0,1.922 1.558,3.48 3.48,3.48 1.9219,0 3.48,-1.558 3.48,-3.48 z"
           style="fill:#3366cc;fill-opacity:1;fill-rule:nonzero;stroke:none"
           id="path738"
           inkscape:connector-curvature="0" /><g
           id="g740"
           transform="matrix(7.874016e-5,0,0,-7.874016e-5,252.24,562.32)"><path
             d="M 88392,44196 C 88392,68604.77 68604.77,88392 44196,88392 19787.22,88392 0,68604.77 0,44196 0,19787.22 19787.22,0 44196,0 68604.77,0 88392,19787.22 88392,44196 Z"
             style="fill:none;stroke:#3366cc;stroke-width:6096;stroke-linecap:butt;stroke-linejoin:round;stroke-miterlimit:10;stroke-dasharray:none;stroke-opacity:1"
             id="path742"
             inkscape:connector-curvature="0" /></g><path
           d="m 252.72,563.4 c 0,-1.9219 -1.5581,-3.48 -3.48,-3.48 -1.922,0 -3.48,1.5581 -3.48,3.48 0,1.922 1.558,3.48 3.48,3.48 1.9219,0 3.48,-1.558 3.48,-3.48 z"
           style="fill:#3366cc;fill-opacity:1;fill-rule:nonzero;stroke:none"
           id="path744"
           inkscape:connector-curvature="0" /><g
           id="g746"
           transform="matrix(7.874016e-5,0,0,-7.874016e-5,245.76,566.88)"><path
             d="M 88392,44196 C 88392,68604.77 68604.77,88392 44196,88392 19787.22,88392 0,68604.77 0,44196 0,19787.22 19787.22,0 44196,0 68604.77,0 88392,19787.22 88392,44196 Z"
             style="fill:none;stroke:#3366cc;stroke-width:6096;stroke-linecap:butt;stroke-linejoin:round;stroke-miterlimit:10;stroke-dasharray:none;stroke-opacity:1"
             id="path748"
             inkscape:connector-curvature="0" /></g><path
           d="m 276.24,583.32 c 0,-1.9219 -1.5581,-3.48 -3.48,-3.48 -1.922,0 -3.48,1.5581 -3.48,3.48 0,1.922 1.558,3.48 3.48,3.48 1.9219,0 3.48,-1.558 3.48,-3.48 z"
           style="fill:#3366cc;fill-opacity:1;fill-rule:nonzero;stroke:none"
           id="path750"
           inkscape:connector-curvature="0" /><g
           id="g752"
           transform="matrix(7.874016e-5,0,0,-7.874016e-5,269.28,586.8)"><path
             d="M 88392,44196 C 88392,68604.77 68604.77,88392 44196,88392 19787.22,88392 0,68604.77 0,44196 0,19787.22 19787.22,0 44196,0 68604.77,0 88392,19787.22 88392,44196 Z"
             style="fill:none;stroke:#3366cc;stroke-width:6096;stroke-linecap:butt;stroke-linejoin:round;stroke-miterlimit:10;stroke-dasharray:none;stroke-opacity:1"
             id="path754"
             inkscape:connector-curvature="0" /></g><path
           d="m 228.96,545.64 c 0,-1.9219 -1.5581,-3.48 -3.48,-3.48 -1.922,0 -3.48,1.5581 -3.48,3.48 0,1.922 1.558,3.48 3.48,3.48 1.9219,0 3.48,-1.558 3.48,-3.48 z"
           style="fill:#3366cc;fill-opacity:1;fill-rule:nonzero;stroke:none"
           id="path756"
           inkscape:connector-curvature="0" /><g
           id="g758"
           transform="matrix(7.874016e-5,0,0,-7.874016e-5,222,549.12)"><path
             d="M 88392,44196 C 88392,68604.77 68604.77,88392 44196,88392 19787.22,88392 0,68604.77 0,44196 0,19787.22 19787.22,0 44196,0 68604.77,0 88392,19787.22 88392,44196 Z"
             style="fill:none;stroke:#3366cc;stroke-width:6096;stroke-linecap:butt;stroke-linejoin:round;stroke-miterlimit:10;stroke-dasharray:none;stroke-opacity:1"
             id="path760"
             inkscape:connector-curvature="0" /></g><path
           d="m 197.76,555.48 c 0,-1.9219 -1.5581,-3.48 -3.48,-3.48 -1.922,0 -3.48,1.5581 -3.48,3.48 0,1.922 1.558,3.48 3.48,3.48 1.9219,0 3.48,-1.558 3.48,-3.48 z"
           style="fill:#3366cc;fill-opacity:1;fill-rule:nonzero;stroke:none"
           id="path762"
           inkscape:connector-curvature="0" /><g
           id="g764"
           transform="matrix(7.874016e-5,0,0,-7.874016e-5,190.8,558.96)"><path
             d="M 88392,44196 C 88392,68604.77 68604.77,88392 44196,88392 19787.22,88392 0,68604.77 0,44196 0,19787.22 19787.22,0 44196,0 68604.77,0 88392,19787.22 88392,44196 Z"
             style="fill:none;stroke:#3366cc;stroke-width:6096;stroke-linecap:butt;stroke-linejoin:round;stroke-miterlimit:10;stroke-dasharray:none;stroke-opacity:1"
             id="path766"
             inkscape:connector-curvature="0" /></g><path
           d="m 208.8,568.44 c 0,-1.9219 -1.5581,-3.48 -3.48,-3.48 -1.922,0 -3.48,1.5581 -3.48,3.48 0,1.922 1.558,3.48 3.48,3.48 1.9219,0 3.48,-1.558 3.48,-3.48 z"
           style="fill:#3366cc;fill-opacity:1;fill-rule:nonzero;stroke:none"
           id="path768"
           inkscape:connector-curvature="0" /><g
           id="g770"
           transform="matrix(7.874016e-5,0,0,-7.874016e-5,201.84,571.92)"><path
             d="M 88392,44196 C 88392,68604.77 68604.77,88392 44196,88392 19787.22,88392 0,68604.77 0,44196 0,19787.22 19787.22,0 44196,0 68604.77,0 88392,19787.22 88392,44196 Z"
             style="fill:none;stroke:#3366cc;stroke-width:6096;stroke-linecap:butt;stroke-linejoin:round;stroke-miterlimit:10;stroke-dasharray:none;stroke-opacity:1"
             id="path772"
             inkscape:connector-curvature="0" /></g><path
           d="m 201.12,560.04 c 0,-1.9219 -1.5581,-3.48 -3.48,-3.48 -1.922,0 -3.48,1.5581 -3.48,3.48 0,1.922 1.558,3.48 3.48,3.48 1.9219,0 3.48,-1.558 3.48,-3.48 z"
           style="fill:#3366cc;fill-opacity:1;fill-rule:nonzero;stroke:none"
           id="path774"
           inkscape:connector-curvature="0" /><g
           id="g776"
           transform="matrix(7.874016e-5,0,0,-7.874016e-5,194.16,563.52)"><path
             d="M 88392,44196 C 88392,68604.77 68604.77,88392 44196,88392 19787.22,88392 0,68604.77 0,44196 0,19787.22 19787.22,0 44196,0 68604.77,0 88392,19787.22 88392,44196 Z"
             style="fill:none;stroke:#3366cc;stroke-width:6096;stroke-linecap:butt;stroke-linejoin:round;stroke-miterlimit:10;stroke-dasharray:none;stroke-opacity:1"
             id="path778"
             inkscape:connector-curvature="0" /></g><path
           d="m 185.76,541.56 c 0,-1.9219 -1.5581,-3.48 -3.48,-3.48 -1.922,0 -3.48,1.5581 -3.48,3.48 0,1.922 1.558,3.48 3.48,3.48 1.9219,0 3.48,-1.558 3.48,-3.48 z"
           style="fill:#3366cc;fill-opacity:1;fill-rule:nonzero;stroke:none"
           id="path780"
           inkscape:connector-curvature="0" /><g
           id="g782"
           transform="matrix(7.874016e-5,0,0,-7.874016e-5,178.8,545.04)"><path
             d="M 88392,44196 C 88392,68604.77 68604.77,88392 44196,88392 19787.22,88392 0,68604.77 0,44196 0,19787.22 19787.22,0 44196,0 68604.77,0 88392,19787.22 88392,44196 Z"
             style="fill:none;stroke:#3366cc;stroke-width:6096;stroke-linecap:butt;stroke-linejoin:round;stroke-miterlimit:10;stroke-dasharray:none;stroke-opacity:1"
             id="path784"
             inkscape:connector-curvature="0" /></g><path
           d="m 175.92,537.24 c 0,-1.9219 -1.5581,-3.48 -3.48,-3.48 -1.922,0 -3.48,1.5581 -3.48,3.48 0,1.922 1.558,3.48 3.48,3.48 1.9219,0 3.48,-1.558 3.48,-3.48 z"
           style="fill:#3366cc;fill-opacity:1;fill-rule:nonzero;stroke:none"
           id="path786"
           inkscape:connector-curvature="0" /><g
           id="g788"
           transform="matrix(7.874016e-5,0,0,-7.874016e-5,168.96,540.72)"><path
             d="M 88392,44196 C 88392,68604.77 68604.77,88392 44196,88392 19787.22,88392 0,68604.77 0,44196 0,19787.22 19787.22,0 44196,0 68604.77,0 88392,19787.22 88392,44196 Z"
             style="fill:none;stroke:#3366cc;stroke-width:6096;stroke-linecap:butt;stroke-linejoin:round;stroke-miterlimit:10;stroke-dasharray:none;stroke-opacity:1"
             id="path790"
             inkscape:connector-curvature="0" /></g><path
           d="m 435.12,592.44 c 0,-1.9219 -1.5581,-3.48 -3.48,-3.48 -1.922,0 -3.48,1.5581 -3.48,3.48 0,1.922 1.558,3.48 3.48,3.48 1.9219,0 3.48,-1.558 3.48,-3.48 z"
           style="fill:#3366cc;fill-opacity:1;fill-rule:nonzero;stroke:none"
           id="path792"
           inkscape:connector-curvature="0" /><g
           id="g794"
           transform="matrix(7.874016e-5,0,0,-7.874016e-5,428.16,595.92)"><path
             d="M 88392,44196 C 88392,68604.77 68604.77,88392 44196,88392 19787.22,88392 0,68604.77 0,44196 0,19787.22 19787.22,0 44196,0 68604.77,0 88392,19787.22 88392,44196 Z"
             style="fill:none;stroke:#3366cc;stroke-width:6096;stroke-linecap:butt;stroke-linejoin:round;stroke-miterlimit:10;stroke-dasharray:none;stroke-opacity:1"
             id="path796"
             inkscape:connector-curvature="0" /></g><path
           d="m 464.88,629.88 c 0,-1.9219 -1.5581,-3.48 -3.48,-3.48 -1.922,0 -3.48,1.5581 -3.48,3.48 0,1.922 1.558,3.48 3.48,3.48 1.9219,0 3.48,-1.558 3.48,-3.48 z"
           style="fill:#3366cc;fill-opacity:1;fill-rule:nonzero;stroke:none"
           id="path798"
           inkscape:connector-curvature="0" /><g
           id="g800"
           transform="matrix(7.874016e-5,0,0,-7.874016e-5,457.92,633.36)"><path
             d="M 88392,44196 C 88392,68604.77 68604.77,88392 44196,88392 19787.22,88392 0,68604.77 0,44196 0,19787.22 19787.22,0 44196,0 68604.77,0 88392,19787.22 88392,44196 Z"
             style="fill:none;stroke:#3366cc;stroke-width:6096;stroke-linecap:butt;stroke-linejoin:round;stroke-miterlimit:10;stroke-dasharray:none;stroke-opacity:1"
             id="path802"
             inkscape:connector-curvature="0" /></g><path
           d="m 441.12,618.84 c 0,-1.9219 -1.5581,-3.48 -3.48,-3.48 -1.922,0 -3.48,1.5581 -3.48,3.48 0,1.922 1.558,3.48 3.48,3.48 1.9219,0 3.48,-1.558 3.48,-3.48 z"
           style="fill:#3366cc;fill-opacity:1;fill-rule:nonzero;stroke:none"
           id="path804"
           inkscape:connector-curvature="0" /><g
           id="g806"
           transform="matrix(7.874016e-5,0,0,-7.874016e-5,434.16,622.32)"><path
             d="M 88392,44196 C 88392,68604.77 68604.77,88392 44196,88392 19787.22,88392 0,68604.77 0,44196 0,19787.22 19787.22,0 44196,0 68604.77,0 88392,19787.22 88392,44196 Z"
             style="fill:none;stroke:#3366cc;stroke-width:6096;stroke-linecap:butt;stroke-linejoin:round;stroke-miterlimit:10;stroke-dasharray:none;stroke-opacity:1"
             id="path808"
             inkscape:connector-curvature="0" /></g><path
           d="m 490.56,652.68 c 0,-1.9219 -1.5581,-3.48 -3.48,-3.48 -1.922,0 -3.48,1.5581 -3.48,3.48 0,1.922 1.558,3.48 3.48,3.48 1.9219,0 3.48,-1.558 3.48,-3.48 z"
           style="fill:#3366cc;fill-opacity:1;fill-rule:nonzero;stroke:none"
           id="path810"
           inkscape:connector-curvature="0" /><g
           id="g812"
           transform="matrix(7.874016e-5,0,0,-7.874016e-5,483.6,656.16)"><path
             d="M 88392,44196 C 88392,68604.77 68604.77,88392 44196,88392 19787.22,88392 0,68604.77 0,44196 0,19787.22 19787.22,0 44196,0 68604.77,0 88392,19787.22 88392,44196 Z"
             style="fill:none;stroke:#3366cc;stroke-width:6096;stroke-linecap:butt;stroke-linejoin:round;stroke-miterlimit:10;stroke-dasharray:none;stroke-opacity:1"
             id="path814"
             inkscape:connector-curvature="0" /></g><path
           d="m 475.2,648.12 c 0,-1.9219 -1.5581,-3.48 -3.48,-3.48 -1.922,0 -3.48,1.5581 -3.48,3.48 0,1.922 1.558,3.48 3.48,3.48 1.9219,0 3.48,-1.558 3.48,-3.48 z"
           style="fill:#3366cc;fill-opacity:1;fill-rule:nonzero;stroke:none"
           id="path816"
           inkscape:connector-curvature="0" /><g
           id="g818"
           transform="matrix(7.874016e-5,0,0,-7.874016e-5,468.24,651.6)"><path
             d="M 88392,44196 C 88392,68604.77 68604.77,88392 44196,88392 19787.22,88392 0,68604.77 0,44196 0,19787.22 19787.22,0 44196,0 68604.77,0 88392,19787.22 88392,44196 Z"
             style="fill:none;stroke:#3366cc;stroke-width:6096;stroke-linecap:butt;stroke-linejoin:round;stroke-miterlimit:10;stroke-dasharray:none;stroke-opacity:1"
             id="path820"
             inkscape:connector-curvature="0" /></g><path
           d="m 405.12,619.32 c 0,-1.9219 -1.5581,-3.48 -3.48,-3.48 -1.922,0 -3.48,1.5581 -3.48,3.48 0,1.922 1.558,3.48 3.48,3.48 1.9219,0 3.48,-1.558 3.48,-3.48 z"
           style="fill:#3366cc;fill-opacity:1;fill-rule:nonzero;stroke:none"
           id="path822"
           inkscape:connector-curvature="0" /><g
           id="g824"
           transform="matrix(7.874016e-5,0,0,-7.874016e-5,398.16,622.8)"><path
             d="M 88392,44196 C 88392,68604.77 68604.77,88392 44196,88392 19787.22,88392 0,68604.77 0,44196 0,19787.22 19787.22,0 44196,0 68604.77,0 88392,19787.22 88392,44196 Z"
             style="fill:none;stroke:#3366cc;stroke-width:6096;stroke-linecap:butt;stroke-linejoin:round;stroke-miterlimit:10;stroke-dasharray:none;stroke-opacity:1"
             id="path826"
             inkscape:connector-curvature="0" /></g><path
           d="m 376.56,609.24 c 0,-1.9219 -1.5581,-3.48 -3.48,-3.48 -1.922,0 -3.48,1.5581 -3.48,3.48 0,1.922 1.558,3.48 3.48,3.48 1.9219,0 3.48,-1.558 3.48,-3.48 z"
           style="fill:#3366cc;fill-opacity:1;fill-rule:nonzero;stroke:none"
           id="path828"
           inkscape:connector-curvature="0" /><g
           id="g830"
           transform="matrix(7.874016e-5,0,0,-7.874016e-5,369.6,612.72)"><path
             d="M 88392,44196 C 88392,68604.77 68604.77,88392 44196,88392 19787.22,88392 0,68604.77 0,44196 0,19787.22 19787.22,0 44196,0 68604.77,0 88392,19787.22 88392,44196 Z"
             style="fill:none;stroke:#3366cc;stroke-width:6096;stroke-linecap:butt;stroke-linejoin:round;stroke-miterlimit:10;stroke-dasharray:none;stroke-opacity:1"
             id="path832"
             inkscape:connector-curvature="0" /></g><path
           d="m 365.52,613.08 c 0,-1.9219 -1.5581,-3.48 -3.48,-3.48 -1.922,0 -3.48,1.5581 -3.48,3.48 0,1.922 1.558,3.48 3.48,3.48 1.9219,0 3.48,-1.558 3.48,-3.48 z"
           style="fill:#3366cc;fill-opacity:1;fill-rule:nonzero;stroke:none"
           id="path834"
           inkscape:connector-curvature="0" /><g
           id="g836"
           transform="matrix(7.874016e-5,0,0,-7.874016e-5,358.56,616.56)"><path
             d="M 88392,44196 C 88392,68604.77 68604.77,88392 44196,88392 19787.22,88392 0,68604.77 0,44196 0,19787.22 19787.22,0 44196,0 68604.77,0 88392,19787.22 88392,44196 Z"
             style="fill:none;stroke:#3366cc;stroke-width:6096;stroke-linecap:butt;stroke-linejoin:round;stroke-miterlimit:10;stroke-dasharray:none;stroke-opacity:1"
             id="path838"
             inkscape:connector-curvature="0" /></g><path
           d="m 288.24,592.2 c 0,-1.9219 -1.5581,-3.48 -3.48,-3.48 -1.922,0 -3.48,1.5581 -3.48,3.48 0,1.922 1.558,3.48 3.48,3.48 1.9219,0 3.48,-1.558 3.48,-3.48 z"
           style="fill:#3366cc;fill-opacity:1;fill-rule:nonzero;stroke:none"
           id="path840"
           inkscape:connector-curvature="0" /><g
           id="g842"
           transform="matrix(7.874016e-5,0,0,-7.874016e-5,281.28,595.68)"><path
             d="M 88392,44196 C 88392,68604.77 68604.77,88392 44196,88392 19787.22,88392 0,68604.77 0,44196 0,19787.22 19787.22,0 44196,0 68604.77,0 88392,19787.22 88392,44196 Z"
             style="fill:none;stroke:#3366cc;stroke-width:6096;stroke-linecap:butt;stroke-linejoin:round;stroke-miterlimit:10;stroke-dasharray:none;stroke-opacity:1"
             id="path844"
             inkscape:connector-curvature="0" /></g><path
           d="m 289.44,659.4 c 0,-1.9219 -1.5581,-3.48 -3.48,-3.48 -1.922,0 -3.48,1.5581 -3.48,3.48 0,1.922 1.558,3.48 3.48,3.48 1.9219,0 3.48,-1.558 3.48,-3.48 z"
           style="fill:#3366cc;fill-opacity:1;fill-rule:nonzero;stroke:none"
           id="path846"
           inkscape:connector-curvature="0" /><g
           id="g848"
           transform="matrix(7.874016e-5,0,0,-7.874016e-5,282.48,662.88)"><path
             d="M 88392,44196 C 88392,68604.77 68604.77,88392 44196,88392 19787.22,88392 0,68604.77 0,44196 0,19787.22 19787.22,0 44196,0 68604.77,0 88392,19787.22 88392,44196 Z"
             style="fill:none;stroke:#3366cc;stroke-width:6096;stroke-linecap:butt;stroke-linejoin:round;stroke-miterlimit:10;stroke-dasharray:none;stroke-opacity:1"
             id="path850"
             inkscape:connector-curvature="0" /></g><path
           d="m 296.4,592.2 c 0,-1.9219 -1.5581,-3.48 -3.48,-3.48 -1.922,0 -3.48,1.5581 -3.48,3.48 0,1.922 1.558,3.48 3.48,3.48 1.9219,0 3.48,-1.558 3.48,-3.48 z"
           style="fill:#3366cc;fill-opacity:1;fill-rule:nonzero;stroke:none"
           id="path852"
           inkscape:connector-curvature="0" /><g
           id="g854"
           transform="matrix(7.874016e-5,0,0,-7.874016e-5,289.44,595.68)"><path
             d="M 88392,44196 C 88392,68604.77 68604.77,88392 44196,88392 19787.22,88392 0,68604.77 0,44196 0,19787.22 19787.22,0 44196,0 68604.77,0 88392,19787.22 88392,44196 Z"
             style="fill:none;stroke:#3366cc;stroke-width:6096;stroke-linecap:butt;stroke-linejoin:round;stroke-miterlimit:10;stroke-dasharray:none;stroke-opacity:1"
             id="path856"
             inkscape:connector-curvature="0" /></g><path
           d="m 310.8,595.8 c 0,-1.9219 -1.5581,-3.48 -3.48,-3.48 -1.922,0 -3.48,1.5581 -3.48,3.48 0,1.922 1.558,3.48 3.48,3.48 1.9219,0 3.48,-1.558 3.48,-3.48 z"
           style="fill:#3366cc;fill-opacity:1;fill-rule:nonzero;stroke:none"
           id="path858"
           inkscape:connector-curvature="0" /><g
           id="g860"
           transform="matrix(7.874016e-5,0,0,-7.874016e-5,303.84,599.28)"><path
             d="M 88392,44196 C 88392,68604.77 68604.77,88392 44196,88392 19787.22,88392 0,68604.77 0,44196 0,19787.22 19787.22,0 44196,0 68604.77,0 88392,19787.22 88392,44196 Z"
             style="fill:none;stroke:#3366cc;stroke-width:6096;stroke-linecap:butt;stroke-linejoin:round;stroke-miterlimit:10;stroke-dasharray:none;stroke-opacity:1"
             id="path862"
             inkscape:connector-curvature="0" /></g><path
           d="m 321.6,603.96 c 0,-1.9219 -1.5581,-3.48 -3.48,-3.48 -1.922,0 -3.48,1.5581 -3.48,3.48 0,1.922 1.558,3.48 3.48,3.48 1.9219,0 3.48,-1.558 3.48,-3.48 z"
           style="fill:#3366cc;fill-opacity:1;fill-rule:nonzero;stroke:none"
           id="path864"
           inkscape:connector-curvature="0" /><g
           id="g866"
           transform="matrix(7.874016e-5,0,0,-7.874016e-5,314.64,607.44)"><path
             d="M 88392,44196 C 88392,68604.77 68604.77,88392 44196,88392 19787.22,88392 0,68604.77 0,44196 0,19787.22 19787.22,0 44196,0 68604.77,0 88392,19787.22 88392,44196 Z"
             style="fill:none;stroke:#3366cc;stroke-width:6096;stroke-linecap:butt;stroke-linejoin:round;stroke-miterlimit:10;stroke-dasharray:none;stroke-opacity:1"
             id="path868"
             inkscape:connector-curvature="0" /></g></g></g><g
       id="g870"><g
         id="g872"
         clip-path="url(#clipPath876)"><g
           id="g878"
           transform="matrix(0.24,0,0,0.24,107.335,439.9092)"><text
             transform="scale(1,-1)"
             style="font-variant:normal;font-weight:normal;font-size:42px;font-family:Calibri;-inkscape-font-specification:Calibri;writing-mode:lr-tb;fill:#000000;fill-opacity:1;fill-rule:nonzero;stroke:none"
             id="text882"><tspan
               x="0 21 42 63"
               y="0"
               sodipodi:role="line"
               id="tspan880">9000</tspan></text>
</g></g></g><g
       id="g884"><g
         id="g886"
         clip-path="url(#clipPath890)"><g
           id="g892"
           transform="matrix(0.24,0,0,0.24,102.16,472.8546)"><text
             transform="scale(1,-1)"
             style="font-variant:normal;font-weight:normal;font-size:42px;font-family:Calibri;-inkscape-font-specification:Calibri;writing-mode:lr-tb;fill:#000000;fill-opacity:1;fill-rule:nonzero;stroke:none"
             id="text896"><tspan
               x="0 21 42 63 84"
               y="0"
               sodipodi:role="line"
               id="tspan894">10000</tspan></text>
</g></g></g><g
       id="g898"><g
         id="g900"
         clip-path="url(#clipPath904)"><g
           id="g906"
           transform="matrix(0.24,0,0,0.24,102.16,505.8001)"><text
             transform="scale(1,-1)"
             style="font-variant:normal;font-weight:normal;font-size:42px;font-family:Calibri;-inkscape-font-specification:Calibri;writing-mode:lr-tb;fill:#000000;fill-opacity:1;fill-rule:nonzero;stroke:none"
             id="text910"><tspan
               x="0 21 42 63 84"
               y="0"
               sodipodi:role="line"
               id="tspan908">11000</tspan></text>
</g></g></g><g
       id="g912"><g
         id="g914"
         clip-path="url(#clipPath918)"><g
           id="g920"
           transform="matrix(0.24,0,0,0.24,102.16,538.7456)"><text
             transform="scale(1,-1)"
             style="font-variant:normal;font-weight:normal;font-size:42px;font-family:Calibri;-inkscape-font-specification:Calibri;writing-mode:lr-tb;fill:#000000;fill-opacity:1;fill-rule:nonzero;stroke:none"
             id="text924"><tspan
               x="0 21 42 63 84"
               y="0"
               sodipodi:role="line"
               id="tspan922">12000</tspan></text>
</g></g></g><g
       id="g926"><g
         id="g928"
         clip-path="url(#clipPath932)"><g
           id="g934"
           transform="matrix(0.24,0,0,0.24,102.16,571.6911)"><text
             transform="scale(1,-1)"
             style="font-variant:normal;font-weight:normal;font-size:42px;font-family:Calibri;-inkscape-font-specification:Calibri;writing-mode:lr-tb;fill:#000000;fill-opacity:1;fill-rule:nonzero;stroke:none"
             id="text938"><tspan
               x="0 21 42 63 84"
               y="0"
               sodipodi:role="line"
               id="tspan936">13000</tspan></text>
</g></g></g><g
       id="g940"><g
         id="g942"
         clip-path="url(#clipPath946)"><g
           id="g948"
           transform="matrix(0.24,0,0,0.24,102.16,604.6365)"><text
             transform="scale(1,-1)"
             style="font-variant:normal;font-weight:normal;font-size:42px;font-family:Calibri;-inkscape-font-specification:Calibri;writing-mode:lr-tb;fill:#000000;fill-opacity:1;fill-rule:nonzero;stroke:none"
             id="text952"><tspan
               x="0 21 42 63 84"
               y="0"
               sodipodi:role="line"
               id="tspan950">14000</tspan></text>
</g></g></g><g
       id="g954"><g
         id="g956"
         clip-path="url(#clipPath960)"><g
           id="g962"
           transform="matrix(0.24,0,0,0.24,102.16,637.582)"><text
             transform="scale(1,-1)"
             style="font-variant:normal;font-weight:normal;font-size:42px;font-family:Calibri;-inkscape-font-specification:Calibri;writing-mode:lr-tb;fill:#000000;fill-opacity:1;fill-rule:nonzero;stroke:none"
             id="text966"><tspan
               x="0 21 42 63 84"
               y="0"
               sodipodi:role="line"
               id="tspan964">15000</tspan></text>
</g></g></g><g
       id="g968"><g
         id="g970"
         clip-path="url(#clipPath974)"><g
           id="g976"
           transform="matrix(0.24,0,0,0.24,102.16,670.5274)"><text
             transform="scale(1,-1)"
             style="font-variant:normal;font-weight:normal;font-size:42px;font-family:Calibri;-inkscape-font-specification:Calibri;writing-mode:lr-tb;fill:#000000;fill-opacity:1;fill-rule:nonzero;stroke:none"
             id="text980"><tspan
               x="0 21 42 63 84"
               y="0"
               sodipodi:role="line"
               id="tspan978">16000</tspan></text>
</g></g></g><g
       id="g982"><g
         id="g984"
         clip-path="url(#clipPath988)"><g
           id="g990"
           transform="matrix(0.24,0,0,0.24,130.3534,427.46)"><text
             transform="scale(1,-1)"
             style="font-variant:normal;font-weight:normal;font-size:42px;font-family:Calibri;-inkscape-font-specification:Calibri;writing-mode:lr-tb;fill:#000000;fill-opacity:1;fill-rule:nonzero;stroke:none"
             id="text994"><tspan
               x="0 21 32.004002"
               y="0"
               sodipodi:role="line"
               id="tspan992">1.5</tspan></text>
</g></g></g><g
       id="g996"><g
         id="g998"
         clip-path="url(#clipPath1002)"><g
           id="g1004"
           transform="matrix(0.24,0,0,0.24,185.1872,427.46)"><text
             transform="scale(1,-1)"
             style="font-variant:normal;font-weight:normal;font-size:42px;font-family:Calibri;-inkscape-font-specification:Calibri;writing-mode:lr-tb;fill:#000000;fill-opacity:1;fill-rule:nonzero;stroke:none"
             id="text1008"><tspan
               x="0 21 32.004002"
               y="0"
               sodipodi:role="line"
               id="tspan1006">2.5</tspan></text>
</g></g></g><g
       id="g1010"><g
         id="g1012"
         clip-path="url(#clipPath1016)"><g
           id="g1018"
           transform="matrix(0.24,0,0,0.24,240.0211,427.46)"><text
             transform="scale(1,-1)"
             style="font-variant:normal;font-weight:normal;font-size:42px;font-family:Calibri;-inkscape-font-specification:Calibri;writing-mode:lr-tb;fill:#000000;fill-opacity:1;fill-rule:nonzero;stroke:none"
             id="text1022"><tspan
               x="0 21 32.004002"
               y="0"
               sodipodi:role="line"
               id="tspan1020">3.5</tspan></text>
</g></g></g><g
       id="g1024"><g
         id="g1026"
         clip-path="url(#clipPath1030)"><g
           id="g1032"
           transform="matrix(0.24,0,0,0.24,294.8548,427.46)"><text
             transform="scale(1,-1)"
             style="font-variant:normal;font-weight:normal;font-size:42px;font-family:Calibri;-inkscape-font-specification:Calibri;writing-mode:lr-tb;fill:#000000;fill-opacity:1;fill-rule:nonzero;stroke:none"
             id="text1036"><tspan
               x="0 21 32.004002"
               y="0"
               sodipodi:role="line"
               id="tspan1034">4.5</tspan></text>
</g></g></g><g
       id="g1038"><g
         id="g1040"
         clip-path="url(#clipPath1044)"><g
           id="g1046"
           transform="matrix(0.24,0,0,0.24,349.6886,427.46)"><text
             transform="scale(1,-1)"
             style="font-variant:normal;font-weight:normal;font-size:42px;font-family:Calibri;-inkscape-font-specification:Calibri;writing-mode:lr-tb;fill:#000000;fill-opacity:1;fill-rule:nonzero;stroke:none"
             id="text1050"><tspan
               x="0 21 32.004002"
               y="0"
               sodipodi:role="line"
               id="tspan1048">5.5</tspan></text>
</g></g></g><g
       id="g1052"><g
         id="g1054"
         clip-path="url(#clipPath1058)"><g
           id="g1060"
           transform="matrix(0.24,0,0,0.24,404.5224,427.46)"><text
             transform="scale(1,-1)"
             style="font-variant:normal;font-weight:normal;font-size:42px;font-family:Calibri;-inkscape-font-specification:Calibri;writing-mode:lr-tb;fill:#000000;fill-opacity:1;fill-rule:nonzero;stroke:none"
             id="text1064"><tspan
               x="0 21 32.004002"
               y="0"
               sodipodi:role="line"
               id="tspan1062">6.5</tspan></text>
</g></g></g><g
       id="g1066"><g
         id="g1068"
         clip-path="url(#clipPath1072)"><g
           id="g1074"
           transform="matrix(0.24,0,0,0.24,459.3562,427.46)"><text
             transform="scale(1,-1)"
             style="font-variant:normal;font-weight:normal;font-size:42px;font-family:Calibri;-inkscape-font-specification:Calibri;writing-mode:lr-tb;fill:#000000;fill-opacity:1;fill-rule:nonzero;stroke:none"
             id="text1078"><tspan
               x="0 21 32.004002"
               y="0"
               sodipodi:role="line"
               id="tspan1076">7.5</tspan></text>
</g></g></g><g
       id="g1080"><g
         id="g1082"
         clip-path="url(#clipPath1086)"><g
           id="g1088"
           transform="matrix(0.24,0,0,0.24,514.19,427.46)"><text
             transform="scale(1,-1)"
             style="font-variant:normal;font-weight:normal;font-size:42px;font-family:Calibri;-inkscape-font-specification:Calibri;writing-mode:lr-tb;fill:#000000;fill-opacity:1;fill-rule:nonzero;stroke:none"
             id="text1092"><tspan
               x="0 21 32.004002"
               y="0"
               sodipodi:role="line"
               id="tspan1090">8.5</tspan></text>
</g></g></g><g
       id="g1094"><g
         id="g1096"
         clip-path="url(#clipPath1100)"><g
           id="g1102"
           transform="matrix(0,0.24,-0.24,0,96.1,518.2183)"><text
             transform="scale(1,-1)"
             style="font-variant:normal;font-weight:normal;font-size:42px;font-family:Calibri;-inkscape-font-specification:Calibri;writing-mode:lr-tb;fill:#000000;fill-opacity:1;fill-rule:nonzero;stroke:none"
             id="text1106"><tspan
               x="0 35.998199 58.010399 72.000603 94.012802 109.011 116.9952 135.9834 157.99561 178.9998 200.004 222.0162 231.00841 243.9906 266.96881 288.98099 324.97919"
               y="0"
               sodipodi:role="line"
               id="tspan1104">Motor	Speed	(RPM)</tspan></text>
</g></g></g><g
       id="g1108"><g
         id="g1110"
         clip-path="url(#clipPath1114)"><g
           id="g1116"
           transform="matrix(0.24,0,0,0.24,306.0691,411.755)"><text
             transform="scale(1,-1)"
             style="font-variant:normal;font-weight:normal;font-size:42px;font-family:Calibri;-inkscape-font-specification:Calibri;writing-mode:lr-tb;fill:#000000;fill-opacity:1;fill-rule:nonzero;stroke:none"
             id="text1120"><tspan
               x="0 21.999599 43.999199 58.984798 73.970398 94.961998 116.9616 130.93919 138.9528 151.9644 175.98"
               y="0"
               sodipodi:role="line"
               id="tspan1118">Current	(A)</tspan></text>
</g></g></g><g
       id="g1122"><g
         id="g1124"
         clip-path="url(#clipPath1128)"><g
           id="g1130"
           transform="matrix(0.24,0,0,0.24,203.4024,693.46)"><text
             transform="scale(1,-1)"
             style="font-variant:normal;font-weight:normal;font-size:75px;font-family:Calibri;-inkscape-font-specification:Calibri;writing-mode:lr-tb;fill:#000000;fill-opacity:1;fill-rule:nonzero;stroke:none"
             id="text1134"><tspan
               x="0 39.997501 79.019997 104.9925 129.99001 166.9875 204.96001 229.9575 248.955 271.92749 314.92499 337.89749 354.87 388.86749 417.84 436.83749 453.81 517.8075 557.80499 581.82751 621.82501 647.79749 663.79498 704.76752 743.78998 807.78748 824.76001"
               y="0"
               sodipodi:role="line"
               id="tspan1132">Current	(A)	vs.	Motor	RPM's</tspan></text>
</g></g></g><g
       id="g1136"><g
         id="g1138"
         clip-path="url(#clipPath1142)"><g
           id="g1144"
           transform="matrix(7.874016e-5,0,0,-7.874016e-5,72,720)"><path
             d="M 0,127010.1 C 0,56864.38 56864.32,0 127010,0 h 5689580 c 70146,0 127010,56864.38 127010,127010.1 V 4006078 c 0,70146 -56864,127010 -127010,127010 H 127010 C 56864.32,4133088 0,4076224 0,4006078 Z"
             style="fill:none;stroke:#898989;stroke-width:6096;stroke-linecap:butt;stroke-linejoin:round;stroke-miterlimit:10;stroke-dasharray:none;stroke-opacity:1"
             id="path1146"
             inkscape:connector-curvature="0" /></g></g></g></g></svg>